<mxfile host="app.diagrams.net" agent="Mozilla/5.0 (Windows NT 10.0; Win64; x64) AppleWebKit/537.36 (KHTML, like Gecko) Chrome/134.0.0.0 Safari/537.36 Edg/134.0.0.0" version="26.2.4">
  <diagram name="Page-1" id="RJ-qmbxkyx_IryZabosk">
    <mxGraphModel dx="1261" dy="542" grid="1" gridSize="10" guides="1" tooltips="1" connect="1" arrows="1" fold="1" page="1" pageScale="1" pageWidth="583" pageHeight="827" math="0" shadow="0">
      <root>
        <mxCell id="0" />
        <mxCell id="1" parent="0" />
        <mxCell id="LFhJUIcYgTTISpt9LpRq-24" value="" style="rounded=0;whiteSpace=wrap;html=1;strokeColor=default;fillColor=none;shadow=0;" vertex="1" parent="1">
          <mxGeometry x="200" y="120" width="740" height="620" as="geometry" />
        </mxCell>
        <mxCell id="LFhJUIcYgTTISpt9LpRq-2" value="" style="rounded=0;whiteSpace=wrap;html=1;strokeColor=default;gradientColor=none;" vertex="1" parent="1">
          <mxGeometry x="30" y="120" width="150" height="620" as="geometry" />
        </mxCell>
        <mxCell id="LFhJUIcYgTTISpt9LpRq-1" value="&lt;font style=&quot;font-size: 22px;&quot;&gt;&lt;b&gt;Sources&lt;/b&gt;&lt;/font&gt;" style="rounded=0;whiteSpace=wrap;html=1;gradientColor=none;strokeColor=none;" vertex="1" parent="1">
          <mxGeometry x="50" y="90" width="110" height="40" as="geometry" />
        </mxCell>
        <mxCell id="LFhJUIcYgTTISpt9LpRq-4" value="" style="shape=image;html=1;verticalAlign=top;verticalLabelPosition=bottom;labelBackgroundColor=#ffffff;imageAspect=0;aspect=fixed;image=https://cdn3.iconfinder.com/data/icons/cad-database-presentation-spreadsheet-vector-fil-2/512/19-128.png" vertex="1" parent="1">
          <mxGeometry x="70" y="210.72000000000003" width="70" height="70" as="geometry" />
        </mxCell>
        <mxCell id="LFhJUIcYgTTISpt9LpRq-5" value="" style="shape=image;html=1;verticalAlign=top;verticalLabelPosition=bottom;labelBackgroundColor=#ffffff;imageAspect=0;aspect=fixed;image=https://cdn3.iconfinder.com/data/icons/cad-database-presentation-spreadsheet-vector-fil-2/512/19-128.png" vertex="1" parent="1">
          <mxGeometry x="70" y="320" width="70" height="70" as="geometry" />
        </mxCell>
        <mxCell id="LFhJUIcYgTTISpt9LpRq-6" value="CRM" style="rounded=0;whiteSpace=wrap;html=1;fontColor=default;strokeColor=none;" vertex="1" parent="1">
          <mxGeometry x="77.5" y="270" width="55" height="30" as="geometry" />
        </mxCell>
        <mxCell id="LFhJUIcYgTTISpt9LpRq-7" value="ERP" style="rounded=0;whiteSpace=wrap;html=1;fontColor=default;strokeColor=none;" vertex="1" parent="1">
          <mxGeometry x="77.5" y="380" width="55" height="30" as="geometry" />
        </mxCell>
        <mxCell id="LFhJUIcYgTTISpt9LpRq-12" value="" style="endArrow=none;html=1;rounded=0;flowAnimation=1;" edge="1" parent="1">
          <mxGeometry width="50" height="50" relative="1" as="geometry">
            <mxPoint x="60" y="420" as="sourcePoint" />
            <mxPoint x="150" y="420" as="targetPoint" />
          </mxGeometry>
        </mxCell>
        <mxCell id="LFhJUIcYgTTISpt9LpRq-14" value="&lt;font style=&quot;font-size: 13px;&quot;&gt;&lt;b style=&quot;&quot;&gt;Object Type:&lt;/b&gt;&lt;/font&gt; CSV Files&lt;div&gt;&lt;br&gt;&lt;div&gt;&lt;font style=&quot;font-size: 13px;&quot;&gt;&lt;b style=&quot;&quot;&gt;Interface:&lt;/b&gt;&lt;/font&gt; Files in Folder&lt;/div&gt;&lt;/div&gt;" style="rounded=1;whiteSpace=wrap;html=1;align=left;strokeColor=none;" vertex="1" parent="1">
          <mxGeometry x="35" y="472.5" width="140" height="60" as="geometry" />
        </mxCell>
        <mxCell id="LFhJUIcYgTTISpt9LpRq-15" value="" style="rounded=0;whiteSpace=wrap;html=1;" vertex="1" parent="1">
          <mxGeometry x="330" y="215" width="140" height="475" as="geometry" />
        </mxCell>
        <mxCell id="LFhJUIcYgTTISpt9LpRq-16" value="" style="rounded=0;whiteSpace=wrap;html=1;" vertex="1" parent="1">
          <mxGeometry x="500" y="215" width="140" height="470" as="geometry" />
        </mxCell>
        <mxCell id="LFhJUIcYgTTISpt9LpRq-17" value="" style="rounded=0;whiteSpace=wrap;html=1;" vertex="1" parent="1">
          <mxGeometry x="680" y="215" width="160" height="470" as="geometry" />
        </mxCell>
        <mxCell id="LFhJUIcYgTTISpt9LpRq-19" value="" style="rounded=0;whiteSpace=wrap;html=1;" vertex="1" parent="1">
          <mxGeometry x="960" y="120" width="160" height="620" as="geometry" />
        </mxCell>
        <mxCell id="LFhJUIcYgTTISpt9LpRq-20" value="" style="rounded=0;whiteSpace=wrap;html=1;fillColor=#ffe6cc;strokeColor=#d79b00;" vertex="1" parent="1">
          <mxGeometry x="330" y="175" width="140" height="40" as="geometry" />
        </mxCell>
        <mxCell id="LFhJUIcYgTTISpt9LpRq-21" value="" style="rounded=0;whiteSpace=wrap;html=1;fillColor=#f5f5f5;fontColor=#333333;strokeColor=#666666;" vertex="1" parent="1">
          <mxGeometry x="500" y="175" width="140" height="40" as="geometry" />
        </mxCell>
        <mxCell id="LFhJUIcYgTTISpt9LpRq-22" value="" style="rounded=0;whiteSpace=wrap;html=1;fillColor=#fff2cc;strokeColor=#d6b656;" vertex="1" parent="1">
          <mxGeometry x="680" y="175" width="160" height="40" as="geometry" />
        </mxCell>
        <mxCell id="LFhJUIcYgTTISpt9LpRq-23" value="&lt;font style=&quot;font-size: 22px;&quot;&gt;&lt;b&gt;Consume&lt;/b&gt;&lt;/font&gt;" style="rounded=0;whiteSpace=wrap;html=1;strokeColor=none;" vertex="1" parent="1">
          <mxGeometry x="980" y="100" width="120" height="40" as="geometry" />
        </mxCell>
        <mxCell id="LFhJUIcYgTTISpt9LpRq-25" value="&lt;font style=&quot;font-size: 22px;&quot;&gt;&lt;b style=&quot;&quot;&gt;Data Warehouse&lt;/b&gt;&lt;/font&gt;" style="rounded=0;whiteSpace=wrap;html=1;strokeColor=none;" vertex="1" parent="1">
          <mxGeometry x="470" y="80" width="240" height="60" as="geometry" />
        </mxCell>
        <mxCell id="LFhJUIcYgTTISpt9LpRq-27" value="" style="sketch=0;verticalLabelPosition=bottom;sketch=0;aspect=fixed;html=1;verticalAlign=top;strokeColor=#d79b00;fillColor=#ffe6cc;align=center;outlineConnect=0;pointerEvents=1;shape=mxgraph.citrix2.site_database;" vertex="1" parent="1">
          <mxGeometry x="377.3" y="245" width="45.395" height="50" as="geometry" />
        </mxCell>
        <mxCell id="LFhJUIcYgTTISpt9LpRq-29" value="" style="sketch=0;verticalLabelPosition=bottom;sketch=0;aspect=fixed;html=1;verticalAlign=top;strokeColor=#666666;fillColor=#f5f5f5;align=center;outlineConnect=0;pointerEvents=1;shape=mxgraph.citrix2.site_database;fontColor=#333333;" vertex="1" parent="1">
          <mxGeometry x="547.3" y="240" width="45.395" height="50" as="geometry" />
        </mxCell>
        <mxCell id="LFhJUIcYgTTISpt9LpRq-30" value="" style="sketch=0;verticalLabelPosition=bottom;sketch=0;aspect=fixed;html=1;verticalAlign=top;strokeColor=#d6b656;fillColor=#fff2cc;align=center;outlineConnect=0;pointerEvents=1;shape=mxgraph.citrix2.site_database;" vertex="1" parent="1">
          <mxGeometry x="737.3" y="240" width="45.395" height="50" as="geometry" />
        </mxCell>
        <mxCell id="LFhJUIcYgTTISpt9LpRq-31" value="Raw Data" style="rounded=0;whiteSpace=wrap;html=1;strokeColor=none;" vertex="1" parent="1">
          <mxGeometry x="365" y="305" width="70" height="20" as="geometry" />
        </mxCell>
        <mxCell id="LFhJUIcYgTTISpt9LpRq-34" value="" style="endArrow=none;html=1;rounded=0;flowAnimation=1;movable=1;resizable=1;rotatable=1;deletable=1;editable=1;locked=0;connectable=1;" edge="1" parent="1">
          <mxGeometry width="50" height="50" relative="1" as="geometry">
            <mxPoint x="355" y="354" as="sourcePoint" />
            <mxPoint x="445" y="354" as="targetPoint" />
            <Array as="points">
              <mxPoint x="395" y="354" />
            </Array>
          </mxGeometry>
        </mxCell>
        <mxCell id="LFhJUIcYgTTISpt9LpRq-35" value="" style="endArrow=none;html=1;rounded=0;flowAnimation=1;" edge="1" parent="1">
          <mxGeometry width="50" height="50" relative="1" as="geometry">
            <mxPoint x="525" y="354.5" as="sourcePoint" />
            <mxPoint x="615" y="354.5" as="targetPoint" />
            <Array as="points">
              <mxPoint x="565" y="354.5" />
            </Array>
          </mxGeometry>
        </mxCell>
        <mxCell id="LFhJUIcYgTTISpt9LpRq-36" value="" style="endArrow=none;html=1;rounded=0;flowAnimation=1;" edge="1" parent="1">
          <mxGeometry width="50" height="50" relative="1" as="geometry">
            <mxPoint x="715" y="354.5" as="sourcePoint" />
            <mxPoint x="805" y="354.5" as="targetPoint" />
            <Array as="points">
              <mxPoint x="755" y="354.5" />
            </Array>
          </mxGeometry>
        </mxCell>
        <mxCell id="LFhJUIcYgTTISpt9LpRq-38" value="Cleaned, Standardized Data" style="rounded=0;whiteSpace=wrap;html=1;strokeColor=none;" vertex="1" parent="1">
          <mxGeometry x="525" y="295" width="90" height="50" as="geometry" />
        </mxCell>
        <mxCell id="LFhJUIcYgTTISpt9LpRq-39" value="&lt;b&gt;&lt;font style=&quot;font-size: 13px;&quot;&gt;Object Type:&lt;/font&gt;&lt;/b&gt; Tables&lt;div&gt;&lt;b&gt;Load:&lt;/b&gt;&amp;nbsp;&lt;/div&gt;&lt;div&gt;&lt;ul&gt;&lt;li&gt;Batch Processing&lt;/li&gt;&lt;li&gt;Full Load&lt;/li&gt;&lt;li&gt;Truncate &amp;amp; Insert&lt;/li&gt;&lt;/ul&gt;&lt;div&gt;No &lt;b&gt;Transformation&lt;/b&gt;&lt;/div&gt;&lt;/div&gt;&lt;div&gt;&lt;b&gt;&lt;br&gt;&lt;/b&gt;&lt;/div&gt;&lt;div&gt;&lt;b&gt;Data Model:&lt;/b&gt; None&lt;/div&gt;" style="rounded=0;whiteSpace=wrap;html=1;align=left;strokeColor=none;" vertex="1" parent="1">
          <mxGeometry x="340" y="372.5" width="120" height="160" as="geometry" />
        </mxCell>
        <mxCell id="LFhJUIcYgTTISpt9LpRq-40" value="&lt;b&gt;Object Type:&lt;/b&gt; Tables&lt;div&gt;&lt;b&gt;Load:&lt;/b&gt;&amp;nbsp;&lt;/div&gt;&lt;div&gt;&lt;ul&gt;&lt;li&gt;Batch Processing&lt;/li&gt;&lt;li&gt;Full Load&lt;/li&gt;&lt;li&gt;Truncate &amp;amp; Insert&lt;/li&gt;&lt;/ul&gt;&lt;/div&gt;&lt;div&gt;&lt;b&gt;Transformation&lt;/b&gt;&lt;/div&gt;&lt;div&gt;&lt;ul&gt;&lt;li&gt;Data Cleaning&lt;/li&gt;&lt;li&gt;Data Standarization&lt;/li&gt;&lt;li&gt;Data Normalization&lt;/li&gt;&lt;li&gt;Derived Columns&lt;/li&gt;&lt;li&gt;Data Enrichment&lt;/li&gt;&lt;/ul&gt;&lt;div&gt;&lt;b&gt;Data Model:&lt;/b&gt; None&lt;/div&gt;&lt;/div&gt;" style="rounded=0;whiteSpace=wrap;html=1;align=left;strokeColor=none;" vertex="1" parent="1">
          <mxGeometry x="510" y="365" width="120" height="310" as="geometry" />
        </mxCell>
        <mxCell id="LFhJUIcYgTTISpt9LpRq-41" value="Business-Ready&lt;div&gt;&amp;nbsp;Data&lt;/div&gt;" style="rounded=0;whiteSpace=wrap;html=1;strokeColor=none;" vertex="1" parent="1">
          <mxGeometry x="700" y="305" width="120" height="25" as="geometry" />
        </mxCell>
        <mxCell id="LFhJUIcYgTTISpt9LpRq-42" value="&lt;font style=&quot;font-size: 13px;&quot;&gt;&lt;b style=&quot;&quot;&gt;Object Type:&lt;/b&gt;&lt;/font&gt; View&lt;div&gt;No &lt;font style=&quot;font-size: 13px;&quot;&gt;&lt;b style=&quot;&quot;&gt;Load&lt;/b&gt;&lt;/font&gt;&lt;/div&gt;&lt;div&gt;&lt;b&gt;&lt;font style=&quot;font-size: 13px;&quot;&gt;Transformation:&lt;/font&gt;&lt;/b&gt;&lt;/div&gt;&lt;div&gt;&lt;ul&gt;&lt;li&gt;Data Integrations&lt;/li&gt;&lt;li&gt;Aggregations&lt;/li&gt;&lt;li&gt;Business Logics&lt;/li&gt;&lt;/ul&gt;&lt;/div&gt;&lt;div&gt;&lt;b&gt;Data Model:&lt;/b&gt;&lt;/div&gt;&lt;div&gt;&lt;ul&gt;&lt;li&gt;Star Schema&lt;/li&gt;&lt;li&gt;Flat Table&lt;/li&gt;&lt;li&gt;Aggregated Table&lt;/li&gt;&lt;/ul&gt;&lt;/div&gt;&lt;div&gt;&lt;br&gt;&lt;/div&gt;" style="rounded=0;whiteSpace=wrap;html=1;strokeColor=none;align=left;" vertex="1" parent="1">
          <mxGeometry x="700" y="390" width="120" height="210" as="geometry" />
        </mxCell>
        <mxCell id="LFhJUIcYgTTISpt9LpRq-43" value="" style="verticalLabelPosition=bottom;sketch=0;aspect=fixed;html=1;verticalAlign=top;strokeColor=none;align=center;outlineConnect=0;shape=mxgraph.citrix.reporting;" vertex="1" parent="1">
          <mxGeometry x="999.25" y="200" width="81.5" height="91.44" as="geometry" />
        </mxCell>
        <mxCell id="LFhJUIcYgTTISpt9LpRq-44" value="" style="image;sketch=0;aspect=fixed;html=1;points=[];align=center;fontSize=12;image=img/lib/mscae/Cognitive_Services.svg;" vertex="1" parent="1">
          <mxGeometry x="989.5" y="503.70000000000005" width="110.5" height="66.3" as="geometry" />
        </mxCell>
        <mxCell id="LFhJUIcYgTTISpt9LpRq-45" value="" style="sketch=0;html=1;aspect=fixed;strokeColor=none;shadow=0;fillColor=#3B8DF1;verticalAlign=top;labelPosition=center;verticalLabelPosition=bottom;shape=mxgraph.gcp2.big_query" vertex="1" parent="1">
          <mxGeometry x="995.25" y="340" width="99" height="100" as="geometry" />
        </mxCell>
        <mxCell id="LFhJUIcYgTTISpt9LpRq-47" value="&lt;b&gt;Reporting&lt;/b&gt;" style="rounded=0;whiteSpace=wrap;html=1;strokeColor=none;" vertex="1" parent="1">
          <mxGeometry x="984.75" y="305" width="120" height="18.56" as="geometry" />
        </mxCell>
        <mxCell id="LFhJUIcYgTTISpt9LpRq-48" value="&lt;b&gt;Queries&lt;/b&gt;" style="rounded=0;whiteSpace=wrap;html=1;strokeColor=none;" vertex="1" parent="1">
          <mxGeometry x="980" y="442.5" width="120" height="20" as="geometry" />
        </mxCell>
        <mxCell id="LFhJUIcYgTTISpt9LpRq-49" value="&lt;b&gt;Machine Learning&lt;/b&gt;" style="rounded=0;whiteSpace=wrap;html=1;strokeColor=none;" vertex="1" parent="1">
          <mxGeometry x="984.75" y="590" width="120" height="20" as="geometry" />
        </mxCell>
      </root>
    </mxGraphModel>
  </diagram>
</mxfile>
